<?xml version="1.0" encoding="UTF-8"?>
<svg width="380px" height="380px" viewBox="0 0 380 380" version="1.1" xmlns="http://www.w3.org/2000/svg" xmlns:xlink="http://www.w3.org/1999/xlink">
    <!-- Generator: Sketch 49.1 (51147) - http://www.bohemiancoding.com/sketch -->
    <title>logomark-inverse</title>
    <desc>Created with Sketch.</desc>
    <defs></defs>
    <g id="logomark-inverse" stroke="none" stroke-width="1" fill="none" fill-rule="evenodd">
        <g id="Logomark" fill="#262626">
            <path d="M121.251935,319.499169 C78.6970319,301.393818 43.3875257,269.701311 20.7525797,233.490608 C31.6174189,242.543284 44.2927933,249.788681 57.8734352,256.122297 C112.150414,281.562596 166.415996,279.820444 204.604937,256.187425 C150.223754,214.473476 104.048595,160.14928 69.6451702,115.78954 C62.3989591,108.545771 56.9665394,99.4914671 51.5341198,91.3432447 C93.1821274,129.369368 159.278872,177.351806 182.814202,190.938961 C133.024484,138.422044 88.6566036,73.237893 90.4638824,75.0451718 C169.235188,154.720117 242.576516,199.991637 242.576516,199.991637 C245.002503,201.359307 246.874909,202.499033 248.380974,203.516645 C249.968449,199.47876 251.360542,195.286199 252.532831,190.938961 C265.208205,144.763801 250.725552,92.2468841 219.033046,48.7907837 C292.366233,93.154594 335.830474,176.448167 317.716982,246.166796 C317.24481,248.047343 316.731933,249.903467 316.178352,251.727028 C316.390016,251.979396 316.601679,252.239904 316.813342,252.508554 C353.024046,297.780074 343.06773,345.762512 338.541393,336.709837 C318.897412,298.268528 282.532031,310.023981 264.044057,317.822959 C226.049684,339.769999 173.809557,342.025027 121.251935,319.499169 Z M62.3606098,207.977152 L43.035762,203.322408 L62.3606098,198.667664 L67.0153539,179.342816 L71.670098,198.667664 L90.9949457,203.322408 L71.670098,207.977152 L67.0153539,227.301999 L62.3606098,207.977152 Z M197.585145,120.473691 L187.225824,118.35801 L197.412328,115.524852 L199.528009,105.165531 L202.361167,115.352035 L212.720488,117.467716 L202.533984,120.300874 L200.418303,130.660195 L197.585145,120.473691 Z M152.428879,64.5099515 L128.581194,58.7657993 L152.428879,53.021647 L158.173031,29.1739625 L163.917183,53.021647 L187.764868,58.7657993 L163.917183,64.5099515 L158.173031,88.357636 L152.428879,64.5099515 Z" id="Combined-Shape"></path>
        </g>
    </g>
</svg>