<svg width="500px" height="500px" viewBox="0 0 500 500" version="1.1" xmlns="http://www.w3.org/2000/svg" xmlns:xlink="http://www.w3.org/1999/xlink">
  <path d="M250,500 C111.928813,500 0,388.071187 0,250 C0,111.928813 111.928813,0 250,0 C388.071187,0 500,111.928813 500,250 C500,388.071187 388.071187,500 250,500 Z M320.001208,373.897835 L320.002019,373.898649 C338.426124,366.1065 374.665876,354.36134 394.241994,392.768989 C398.752695,401.813738 408.674615,353.873314 372.589006,308.641434 C372.378074,308.373019 372.167142,308.112739 371.95621,307.860592 C372.507878,306.038628 373.018983,304.184129 373.489524,302.305229 C391.540441,232.647646 348.226352,149.427006 275.146503,105.102041 C306.729524,148.520091 321.162145,200.991023 308.53056,247.125752 C307.36232,251.469183 305.975036,255.658073 304.393046,259.692422 C302.892183,258.675701 301.026246,257.536974 298.60864,256.170501 C298.60864,256.170501 225.520678,210.938621 147.021497,131.33344 C145.220462,129.527744 189.435069,194.654819 239.052781,247.125752 C215.598758,233.550494 149.730352,185.61007 108.226222,147.617242 C113.639875,155.75833 119.053527,164.804706 126.274706,172.042132 C160.55928,216.36303 206.574922,270.639659 260.711448,312.252013 C260.727674,312.276414 260.743899,312.292682 260.768238,312.317083 C222.711225,335.92941 168.63311,337.670036 114.543638,312.252013 C101.009912,305.923942 88.3783257,298.684889 77.5510204,289.64014 C100.107771,325.819137 135.295297,357.483893 177.703189,375.573391 C230.079244,398.079525 282.138901,395.826472 320.001208,373.897835 Z M116.095304,271.181233 L120.750048,290.506081 L125.404792,271.181233 L144.72964,266.526489 L125.404792,261.871745 L120.750048,242.546897 L116.095304,261.871745 L96.7704559,266.526489 L116.095304,271.181233 Z M258.462696,171.432875 L261.295854,181.619379 L263.411535,171.260057 L273.598039,168.4269 L263.238718,166.311219 L260.40556,156.124715 L258.289879,166.484036 L248.103375,169.317193 L258.462696,171.432875 Z M219.428879,114.448727 L225.173031,138.296412 L230.917183,114.448727 L254.764868,108.704575 L230.917183,102.960422 L225.173031,79.112738 L219.428879,102.960422 L195.581194,108.704575 L219.428879,114.448727 Z" id="path-1"></path>
</svg>
