<?xml version="1.0" encoding="UTF-8"?>
<svg width="500px" height="500px" viewBox="0 0 500 500" version="1.1" xmlns="http://www.w3.org/2000/svg" xmlns:xlink="http://www.w3.org/1999/xlink">
    <!-- Generator: Sketch 49.1 (51147) - http://www.bohemiancoding.com/sketch -->
    <title>logomark</title>
    <desc>Created with Sketch.</desc>
    <defs>
        <path d="M250,500 C111.928813,500 0,388.071187 0,250 C0,111.928813 111.928813,0 250,0 C388.071187,0 500,111.928813 500,250 C500,388.071187 388.071187,500 250,500 Z M184.251935,371.499169 C236.809557,394.025027 289.049684,391.769999 327.044057,369.822959 C345.532031,362.023981 381.897412,350.268528 401.541393,388.709837 C406.06773,397.762512 416.024046,349.780074 379.813342,304.508554 C379.601679,304.239904 379.390016,303.979396 379.178352,303.727028 C379.731933,301.903467 380.24481,300.047343 380.716982,298.166796 C398.830474,228.448167 355.366233,145.154594 282.033046,100.790784 C313.725552,144.246884 328.208205,196.763801 315.532831,242.938961 C314.360542,247.286199 312.968449,251.47876 311.380974,255.516645 C309.874909,254.499033 308.002503,253.359307 305.576516,251.991637 C305.576516,251.991637 232.235188,206.720117 153.463882,127.045172 C151.656604,125.237893 196.024484,190.422044 245.814202,242.938961 C222.278872,229.351806 156.182127,181.369368 114.53412,143.343245 C119.966539,151.491467 125.398959,160.545771 132.64517,167.78954 C167.048595,212.14928 213.223754,266.473476 267.604937,308.187425 C229.415996,331.820444 175.150414,333.562596 120.873435,308.122297 C107.292793,301.788681 94.6174189,294.543284 83.7525797,285.490608 C106.387526,321.701311 141.697032,353.393818 184.251935,371.499169 Z M125.36061,259.977152 L130.015354,279.301999 L134.670098,259.977152 L153.994946,255.322408 L134.670098,250.667664 L130.015354,231.342816 L125.36061,250.667664 L106.035762,255.322408 L125.36061,259.977152 Z M260.585145,172.473691 L263.418303,182.660195 L265.533984,172.300874 L275.720488,169.467716 L265.361167,167.352035 L262.528009,157.165531 L260.412328,167.524852 L250.225824,170.35801 L260.585145,172.473691 Z M215.428879,116.509952 L221.173031,140.357636 L226.917183,116.509952 L250.764868,110.765799 L226.917183,105.021647 L221.173031,81.1739625 L215.428879,105.021647 L191.581194,110.765799 L215.428879,116.509952 Z" id="path-1"></path>
    </defs>
    <g id="logomark" stroke="none" stroke-width="1" fill="none" fill-rule="evenodd">
        <g id="Logomark-Circle">
            <circle id="Circle" fill="#FDFDFD" fill-rule="evenodd" cx="250" cy="250" r="240"></circle>
            <mask id="mask-2" fill="white">
                <use xlink:href="#path-1"></use>
            </mask>
            <use id="Combined-Shape" fill="#262626" fill-rule="evenodd" xlink:href="#path-1"></use>
        </g>
    </g>
</svg>